<?xml version="1.0" encoding="UTF-8" standalone="no"?>
<!DOCTYPE svg PUBLIC "-//W3C//DTD SVG 1.1//EN" "http://www.w3.org/Graphics/SVG/1.1/DTD/svg11.dtd">
<svg width="100%" height="100%" viewBox="0 0 413 129" version="1.1" xmlns="http://www.w3.org/2000/svg" xmlns:xlink="http://www.w3.org/1999/xlink" xml:space="preserve" xmlns:serif="http://www.serif.com/" style="fill-rule:evenodd;clip-rule:evenodd;stroke-linejoin:round;stroke-miterlimit:2;">
    <g transform="matrix(1,0,0,1,-1280,-2963)">
        <g id="name" transform="matrix(0.628468,0,0,0.245846,475.313,2234.45)">
            <rect x="1280.39" y="2963.45" width="655.94" height="522.435" style="fill:none;"/>
            <clipPath id="_clip1">
                <rect x="1280.39" y="2963.45" width="655.94" height="522.435"/>
            </clipPath>
            <g clip-path="url(#_clip1)">
                <g transform="matrix(2.5666,0,0,10.1987,-15693.3,2558.89)">
                    <g transform="matrix(1.03286,0.0514999,-0.080052,0.66447,90.6575,-807.567)">
                        <path d="M6418.13,837.522L6418.13,778.022L6412.88,778.022L6412.88,802.688L6412.72,802.688C6412.16,801.133 6411.37,799.772 6410.34,798.605C6409.31,797.438 6408.13,796.452 6406.8,795.647C6405.47,794.841 6404.03,794.244 6402.51,793.855C6400.98,793.466 6399.41,793.272 6397.8,793.272C6394.52,793.272 6391.67,793.883 6389.26,795.105C6386.84,796.327 6384.83,797.98 6383.22,800.063C6381.6,802.147 6380.41,804.563 6379.63,807.313C6378.85,810.063 6378.47,812.966 6378.47,816.022C6378.47,819.077 6378.85,821.98 6379.63,824.73C6380.41,827.48 6381.6,829.897 6383.22,831.98C6384.83,834.063 6386.84,835.702 6389.26,836.897C6391.67,838.091 6394.52,838.688 6397.8,838.688C6399.35,838.688 6400.92,838.466 6402.51,838.022C6404.09,837.577 6405.58,836.952 6406.97,836.147C6408.35,835.341 6409.59,834.355 6410.67,833.188C6411.76,832.022 6412.58,830.744 6413.13,829.355L6413.3,829.355L6413.3,837.522L6418.13,837.522ZM6383.72,816.022C6383.72,813.799 6383.98,811.591 6384.51,809.397C6385.03,807.202 6385.87,805.244 6387.01,803.522C6388.15,801.799 6389.6,800.397 6391.38,799.313C6393.16,798.23 6395.3,797.688 6397.8,797.688C6400.58,797.688 6402.92,798.23 6404.84,799.313C6406.76,800.397 6408.31,801.799 6409.51,803.522C6410.7,805.244 6411.56,807.202 6412.09,809.397C6412.62,811.591 6412.88,813.799 6412.88,816.022C6412.88,818.244 6412.62,820.452 6412.09,822.647C6411.56,824.841 6410.7,826.799 6409.51,828.522C6408.31,830.244 6406.76,831.647 6404.84,832.73C6402.92,833.813 6400.58,834.355 6397.8,834.355C6395.3,834.355 6393.16,833.813 6391.38,832.73C6389.6,831.647 6388.15,830.244 6387.01,828.522C6385.87,826.799 6385.03,824.841 6384.51,822.647C6383.98,820.452 6383.72,818.244 6383.72,816.022Z" style="fill:white;fill-rule:nonzero;"/>
                    </g>
                    <g transform="matrix(1.03427,-0.038035,0.059122,0.665377,-33.2371,-233.061)">
                        <path d="M6446.3,797.688C6448.8,797.688 6450.99,798.216 6452.88,799.272C6454.77,800.327 6456.34,801.716 6457.59,803.438C6458.84,805.161 6459.78,807.119 6460.42,809.313C6461.06,811.508 6461.38,813.744 6461.38,816.022C6461.38,818.299 6461.06,820.536 6460.42,822.73C6459.78,824.924 6458.84,826.883 6457.59,828.605C6456.34,830.327 6454.77,831.716 6452.88,832.772C6450.99,833.827 6448.8,834.355 6446.3,834.355C6443.8,834.355 6441.6,833.827 6439.72,832.772C6437.83,831.716 6436.26,830.327 6435.01,828.605C6433.76,826.883 6432.81,824.924 6432.17,822.73C6431.53,820.536 6431.22,818.299 6431.22,816.022C6431.22,813.744 6431.53,811.508 6432.17,809.313C6432.81,807.119 6433.76,805.161 6435.01,803.438C6436.26,801.716 6437.83,800.327 6439.72,799.272C6441.6,798.216 6443.8,797.688 6446.3,797.688ZM6446.3,793.272C6443.02,793.272 6440.12,793.883 6437.59,795.105C6435.06,796.327 6432.94,797.966 6431.22,800.022C6429.49,802.077 6428.19,804.48 6427.3,807.23C6426.41,809.98 6425.97,812.911 6425.97,816.022C6425.97,819.133 6426.41,822.063 6427.3,824.813C6428.19,827.563 6429.49,829.966 6431.22,832.022C6432.94,834.077 6435.06,835.702 6437.59,836.897C6440.12,838.091 6443.02,838.688 6446.3,838.688C6449.58,838.688 6452.48,838.091 6455.01,836.897C6457.53,835.702 6459.66,834.077 6461.38,832.022C6463.1,829.966 6464.41,827.563 6465.3,824.813C6466.19,822.063 6466.63,819.133 6466.63,816.022C6466.63,812.911 6466.19,809.98 6465.3,807.23C6464.41,804.48 6463.1,802.077 6461.38,800.022C6459.66,797.966 6457.53,796.327 6455.01,795.105C6452.48,793.883 6449.58,793.272 6446.3,793.272Z" style="fill:white;fill-rule:nonzero;"/>
                    </g>
                    <g transform="matrix(1.03445,0.0359275,-0.0558461,0.665494,56.9765,-712.909)">
                        <path d="M6509.3,837.522L6509.3,794.522L6504.05,794.522L6504.05,817.105C6504.05,819.272 6503.8,821.397 6503.3,823.48C6502.8,825.563 6502.02,827.411 6500.97,829.022C6499.91,830.633 6498.58,831.924 6496.97,832.897C6495.35,833.869 6493.41,834.355 6491.13,834.355C6486.97,834.355 6484.03,833.355 6482.34,831.355C6480.65,829.355 6479.74,826.411 6479.63,822.522L6479.63,794.522L6474.38,794.522L6474.38,822.438C6474.38,824.994 6474.66,827.272 6475.22,829.272C6475.77,831.272 6476.65,832.966 6477.84,834.355C6479.03,835.744 6480.59,836.813 6482.51,837.563C6484.42,838.313 6486.74,838.688 6489.47,838.688C6492.69,838.688 6495.62,837.924 6498.26,836.397C6500.9,834.869 6502.91,832.661 6504.3,829.772L6504.47,829.772L6504.47,837.522L6509.3,837.522Z" style="fill:white;fill-rule:nonzero;"/>
                    </g>
                    <g transform="matrix(1.02237,-0.107581,0.167225,0.657723,-46.5447,229.17)">
                        <path d="M6555.55,834.022L6555.55,794.522L6550.3,794.522L6550.3,801.938L6550.13,801.938C6549.63,800.772 6548.92,799.661 6548.01,798.605C6547.09,797.549 6546.05,796.619 6544.88,795.813C6543.72,795.008 6542.42,794.383 6541.01,793.938C6539.59,793.494 6538.08,793.272 6536.47,793.272C6533.35,793.272 6530.59,793.841 6528.17,794.98C6525.76,796.119 6523.73,797.674 6522.09,799.647C6520.45,801.619 6519.2,803.924 6518.34,806.563C6517.48,809.202 6517.05,811.994 6517.05,814.938C6517.05,817.994 6517.41,820.869 6518.13,823.563C6518.85,826.258 6520.01,828.605 6521.59,830.605C6523.17,832.605 6525.19,834.174 6527.63,835.313C6530.08,836.452 6533.02,837.022 6536.47,837.022C6539.63,837.022 6542.4,836.216 6544.76,834.605C6547.12,832.994 6548.91,830.855 6550.13,828.188L6550.3,828.188L6550.3,834.022C6550.3,839.244 6549.22,843.244 6547.05,846.022C6544.88,848.799 6541.35,850.188 6536.47,850.188C6535.02,850.188 6533.6,850.036 6532.22,849.73C6530.83,849.424 6529.56,848.938 6528.42,848.272C6527.28,847.605 6526.31,846.73 6525.51,845.647C6524.7,844.563 6524.16,843.216 6523.88,841.605L6518.63,841.605C6518.8,843.883 6519.42,845.841 6520.51,847.48C6521.59,849.119 6522.95,850.466 6524.59,851.522C6526.23,852.577 6528.08,853.355 6530.13,853.855C6532.19,854.355 6534.3,854.605 6536.47,854.605C6539.97,854.605 6542.92,854.133 6545.34,853.188C6547.76,852.244 6549.72,850.883 6551.22,849.105C6552.72,847.327 6553.81,845.161 6554.51,842.605C6555.2,840.049 6555.55,837.188 6555.55,834.022ZM6536.47,832.605C6534.02,832.605 6531.91,832.119 6530.13,831.147C6528.35,830.174 6526.88,828.897 6525.72,827.313C6524.55,825.73 6523.69,823.911 6523.13,821.855C6522.58,819.799 6522.3,817.688 6522.3,815.522C6522.3,813.299 6522.56,811.119 6523.09,808.98C6523.62,806.841 6524.47,804.938 6525.63,803.272C6526.8,801.605 6528.27,800.258 6530.05,799.23C6531.83,798.202 6533.97,797.688 6536.47,797.688C6538.97,797.688 6541.09,798.216 6542.84,799.272C6544.59,800.327 6546.02,801.716 6547.13,803.438C6548.24,805.161 6549.05,807.077 6549.55,809.188C6550.05,811.299 6550.3,813.411 6550.3,815.522C6550.3,817.688 6550.01,819.799 6549.42,821.855C6548.84,823.911 6547.97,825.73 6546.8,827.313C6545.63,828.897 6544.19,830.174 6542.47,831.147C6540.74,832.119 6538.74,832.605 6536.47,832.605Z" style="fill:white;fill-rule:nonzero;"/>
                    </g>
                    <g transform="matrix(1.01779,0.124279,-0.193181,0.654773,284.246,-1286.6)">
                        <path d="M6588.8,778.022L6588.8,786.438L6594.05,786.438L6594.05,778.022L6588.8,778.022ZM6588.8,794.522L6588.8,842.688C6588.8,844.466 6588.52,845.952 6587.97,847.147C6587.41,848.341 6586.1,848.938 6584.05,848.938C6583.66,848.994 6583.22,849.008 6582.72,848.98C6582.22,848.952 6581.74,848.911 6581.3,848.855L6581.3,853.188C6581.91,853.188 6582.51,853.216 6583.09,853.272C6583.67,853.327 6584.27,853.355 6584.88,853.355C6586.72,853.355 6588.23,853.036 6589.42,852.397C6590.62,851.758 6591.56,850.897 6592.26,849.813C6592.95,848.73 6593.42,847.466 6593.67,846.022C6593.92,844.577 6594.05,843.049 6594.05,841.438L6594.05,794.522L6588.8,794.522Z" style="fill:white;fill-rule:nonzero;"/>
                    </g>
                    <g transform="matrix(0.189439,0.02134,-0.0331711,0.121872,6425.12,0.192942)">
                        <path d="M2313.09,150L2335.33,182.235L2372.85,193.419L2349.07,224.525L2350.03,263.671L2313.09,250.661L2276.16,263.671L2277.12,224.525L2253.33,193.419L2290.86,182.235L2313.09,150Z" style="fill:white;"/>
                    </g>
                </g>
            </g>
        </g>
    </g>
</svg>
